<svg width="1728" height="1117" viewBox="0 0 1728 1117" fill="none" xmlns="http://www.w3.org/2000/svg">
<path opacity="0.0144928" d="M1423.87 2215.52C1429.92 2223.88 1441.04 2227.03 1450.94 2223.18L1834.5 2073.93C1840.16 2071.72 1844.78 2067.45 1847.37 2062.03L2101.14 1530.95C2103.15 1526.73 2103.84 1522.04 2103.1 1517.5L2021.5 1017.79C2020.11 1009.27 2013.92 1002.39 2005.52 1000.01L1667.44 904.34C1659.04 901.962 1649.88 904.506 1643.79 910.906L1286.55 1286.44C1283.31 1289.85 1281.17 1294.13 1280.41 1298.7L1185.51 1874.74C1184.54 1880.62 1185.94 1886.59 1189.4 1891.38L1423.87 2215.52Z" stroke="url(#paint0_linear_16_490)" stroke-width="4"/>
<path opacity="0.0289855" d="M1368.39 2187.64C1374 2196.31 1384.93 2200.05 1395 2196.74L1782.39 2069.14C1788.15 2067.24 1792.98 2063.22 1795.85 2057.94L2074.11 1544.65C2076.34 1540.54 2077.26 1535.89 2076.75 1531.31L2021.25 1031.34C2020.3 1022.76 2014.47 1015.54 2006.21 1012.72L1676.3 899.866C1668.04 897.04 1658.77 899.091 1652.37 905.161L1279.53 1258.61C1276.11 1261.85 1273.76 1266.01 1272.77 1270.54L1149.59 1836.87C1148.32 1842.71 1149.41 1848.75 1152.62 1853.72L1368.39 2187.64Z" stroke="url(#paint1_linear_16_490)" stroke-width="4"/>
<path opacity="0.0434783" d="M1314.21 2158.2C1319.36 2167.17 1330.07 2171.49 1340.28 2168.72L1730.28 2062.86C1736.13 2061.27 1741.16 2057.51 1744.29 2052.38L2045.8 1558.08C2048.24 1554.09 2049.39 1549.49 2049.12 1544.88L2019.4 1046.02C2018.89 1037.39 2013.45 1029.86 2005.35 1026.6L1684.43 897.088C1676.33 893.822 1666.98 895.374 1660.28 901.095L1273.22 1231.76C1269.64 1234.82 1267.07 1238.86 1265.86 1243.34L1115.26 1798.53C1113.7 1804.3 1114.47 1810.4 1117.43 1815.54L1314.21 2158.2Z" stroke="url(#paint2_linear_16_490)" stroke-width="4"/>
<path opacity="0.057971" d="M1261.4 2127.31C1266.07 2136.54 1276.52 2141.43 1286.83 2139.21L1678.26 2055.09C1684.18 2053.82 1689.39 2050.33 1692.78 2045.36L2016.23 1571.17C2018.87 1567.3 2020.26 1562.76 2020.22 1558.13L2015.92 1061.72C2015.84 1053.06 2010.8 1045.26 2002.9 1041.56L1691.73 895.952C1683.83 892.254 1674.43 893.303 1667.46 898.66L1267.56 1205.93C1263.84 1208.8 1261.07 1212.7 1259.62 1217.12L1082.54 1759.81C1080.69 1765.49 1081.15 1771.64 1083.84 1776.94L1261.4 2127.31Z" stroke="url(#paint3_linear_16_490)" stroke-width="4"/>
<path opacity="0.0724638" d="M1210.01 2095.04C1214.2 2104.51 1224.35 2109.95 1234.74 2108.29L1626.41 2045.86C1632.38 2044.9 1637.76 2041.69 1641.39 2036.9L1985.43 1583.84C1988.26 1580.11 1989.88 1575.63 1990.08 1571L2010.75 1078.35C2011.12 1069.69 2006.49 1061.62 1998.81 1057.51L1698.14 896.399C1690.45 892.282 1681.03 892.825 1673.8 897.803L1262.51 1181.15C1258.64 1183.81 1255.67 1187.57 1254 1191.93L1051.43 1720.78C1049.29 1726.38 1049.44 1732.55 1051.86 1738L1210.01 2095.04Z" stroke="url(#paint4_linear_16_490)" stroke-width="4"/>
<path opacity="0.0869565" d="M1160.11 2061.48C1163.81 2071.16 1173.63 2077.13 1184.05 2076.04L1574.78 2035.17C1580.79 2034.54 1586.33 2031.61 1590.21 2027.01L1953.43 1596.04C1956.45 1592.46 1958.3 1588.05 1958.73 1583.41L2003.88 1095.81C2004.68 1087.18 2000.48 1078.86 1993.04 1074.34L1703.57 898.369C1696.13 893.844 1686.72 893.881 1679.26 898.466L1258 1157.43C1253.99 1159.9 1250.83 1163.5 1248.94 1167.78L1021.94 1681.56C1019.52 1687.04 1019.35 1693.24 1021.49 1698.81L1160.11 2061.48Z" stroke="url(#paint5_linear_16_490)" stroke-width="4"/>
<path opacity="0.101449" d="M1111.75 2026.73C1114.94 2036.59 1124.4 2043.07 1134.83 2042.54L1523.47 2023.05C1529.5 2022.75 1535.18 2020.12 1539.29 2015.72L1920.27 1607.7C1923.47 1604.26 1925.54 1599.94 1926.21 1595.32L1995.27 1113.99C1996.5 1105.41 1992.75 1096.88 1985.57 1091.96L1707.97 901.796C1700.79 896.877 1691.41 896.41 1683.74 900.588L1253.96 1134.81C1249.83 1137.06 1246.49 1140.51 1244.38 1144.7L994.056 1642.22C991.357 1647.58 990.879 1653.78 992.725 1659.48L1111.75 2026.73Z" stroke="url(#paint6_linear_16_490)" stroke-width="4"/>
<path opacity="0.115942" d="M1064.97 1990.89C1067.65 2000.89 1076.72 2007.85 1087.11 2007.9L1472.54 2009.54C1478.58 2009.56 1484.38 2007.23 1488.71 2003.04L1885.98 1618.75C1889.36 1615.48 1891.66 1611.25 1892.56 1606.64L1984.9 1132.81C1986.56 1124.29 1983.26 1115.57 1976.37 1110.27L1711.25 906.61C1704.36 901.314 1695.05 900.346 1687.2 904.107L1250.34 1113.3C1246.09 1115.34 1242.57 1118.62 1240.25 1122.71L967.771 1602.86C964.801 1608.09 964.008 1614.28 965.565 1620.08L1064.97 1990.89Z" stroke="url(#paint7_linear_16_490)" stroke-width="4"/>
<path opacity="0.130435" d="M1019.82 1954.04C1021.98 1964.15 1030.63 1971.58 1040.96 1972.19L1422.06 1994.65C1428.08 1995.01 1434 1992.98 1438.55 1989.02L1850.61 1629.15C1854.17 1626.04 1856.68 1621.92 1857.81 1617.34L1972.77 1152.14C1974.85 1143.71 1972.01 1134.83 1965.42 1129.17L1713.37 912.74C1706.78 907.084 1697.57 905.619 1689.55 908.952L1247.08 1092.92C1242.73 1094.73 1239.03 1097.84 1236.5 1101.82L943.071 1563.56C939.836 1568.65 938.73 1574.81 939.992 1580.71L1019.82 1954.04Z" stroke="url(#paint8_linear_16_490)" stroke-width="4"/>
<path opacity="0.144928" d="M976.328 1916.28C977.97 1926.48 986.172 1934.34 996.396 1935.51L1372.1 1978.43C1378.09 1979.12 1384.11 1977.41 1388.86 1973.67L1814.21 1638.82C1817.93 1635.89 1820.66 1631.89 1822.02 1627.34L1958.85 1171.89C1961.34 1163.58 1958.97 1154.56 1952.71 1148.56L1714.26 920.11C1708 914.113 1698.91 912.159 1690.76 915.056L1244.11 1073.68C1239.66 1075.26 1235.8 1078.19 1233.06 1082.06L919.936 1524.43C916.444 1529.36 915.025 1535.48 915.987 1541.46L976.328 1916.28Z" stroke="url(#paint9_linear_16_490)" stroke-width="4"/>
<path opacity="0.15942" d="M934.525 1877.73C935.645 1887.98 943.375 1896.24 953.463 1897.96L1322.72 1960.91C1328.67 1961.93 1334.77 1960.54 1339.7 1957.04L1776.82 1647.73C1780.7 1644.99 1783.64 1641.1 1785.23 1636.6L1943.14 1191.96C1946.05 1183.78 1944.15 1174.65 1938.24 1168.33L1713.88 928.645C1707.96 922.327 1699.03 919.892 1690.76 922.344L1241.37 1055.59C1236.83 1056.94 1232.81 1059.68 1229.87 1063.42L898.344 1485.53C894.6 1490.3 892.87 1496.36 893.53 1502.4L934.525 1877.73Z" stroke="url(#paint10_linear_16_490)" stroke-width="4"/>
<path opacity="0.173913" d="M894.433 1838.47C895.032 1848.74 902.269 1857.37 912.188 1859.63L1273.99 1942.14C1279.87 1943.48 1286.04 1942.41 1291.15 1939.17L1738.49 1655.81C1742.52 1653.26 1745.67 1649.51 1747.49 1645.07L1925.66 1212.25C1928.96 1204.22 1927.55 1195.01 1922 1188.39L1712.17 938.262C1706.62 931.644 1697.87 928.74 1689.51 930.741L1238.8 1038.66C1234.18 1039.77 1230.01 1042.31 1226.87 1045.92L878.263 1446.97C874.276 1451.56 872.238 1457.55 872.593 1463.64L894.433 1838.47Z" stroke="url(#paint11_linear_16_490)" stroke-width="4"/>
<path opacity="0.188406" d="M856.07 1798.6C856.15 1808.87 862.874 1817.83 872.592 1820.62L1225.95 1922.15C1231.75 1923.82 1237.98 1923.08 1243.26 1920.1L1699.28 1663.03C1703.45 1660.67 1706.8 1657.06 1708.86 1652.69L1906.4 1232.65C1910.09 1224.8 1909.16 1215.53 1903.99 1208.63L1709.1 948.881C1703.93 941.986 1695.38 938.624 1686.96 940.17L1236.34 1022.89C1231.65 1023.75 1227.34 1026.08 1224 1029.55L859.661 1408.82C855.438 1413.21 853.094 1419.12 853.142 1425.25L856.07 1798.6Z" stroke="url(#paint12_linear_16_490)" stroke-width="4"/>
<path opacity="0.202899" d="M819.446 1758.23C819.013 1768.46 825.207 1777.72 834.693 1781.03L1178.68 1900.99C1184.38 1902.98 1190.64 1902.58 1196.08 1899.87L1659.24 1669.33C1663.55 1667.18 1667.09 1663.72 1669.38 1659.42L1885.38 1253.06C1889.45 1245.41 1889 1236.11 1884.22 1228.96L1704.63 960.42C1699.85 953.272 1691.54 949.466 1683.08 950.553L1233.92 1008.28C1229.17 1008.89 1224.72 1011.01 1221.2 1014.32L842.501 1371.16C838.051 1375.35 835.404 1381.16 835.144 1387.31L819.446 1758.23Z" stroke="url(#paint13_linear_16_490)" stroke-width="4"/>
<path opacity="0.217391" d="M784.567 1717.46C783.628 1727.62 789.278 1737.14 798.501 1740.95L1132.21 1878.72C1137.8 1881.03 1144.08 1880.96 1149.67 1878.53L1618.43 1674.67C1622.86 1672.74 1626.6 1669.44 1629.11 1665.23L1862.63 1273.39C1867.06 1265.95 1867.09 1256.65 1862.72 1249.28L1698.73 972.793C1694.36 965.415 1686.3 961.18 1677.82 961.807L1231.48 994.825C1226.69 995.179 1222.11 997.071 1218.41 1000.23L826.739 1334.07C822.07 1338.05 819.126 1343.74 818.557 1349.9L784.567 1717.46Z" stroke="url(#paint14_linear_16_490)" stroke-width="4"/>
<path opacity="0.231884" d="M751.433 1676.38C749.996 1686.44 755.092 1696.2 764.025 1700.49L1086.6 1855.39C1092.06 1858.01 1098.35 1858.28 1104.07 1856.14L1576.9 1679.02C1581.46 1677.31 1585.38 1674.18 1588.11 1670.07L1838.16 1293.53C1842.94 1286.33 1843.46 1277.06 1839.49 1269.48L1691.38 985.916C1687.41 978.333 1679.63 973.685 1671.17 973.851L1228.97 982.516C1224.14 982.61 1219.45 984.272 1215.56 987.261L812.33 1297.63C807.452 1301.38 804.215 1306.95 803.337 1313.1L751.433 1676.38Z" stroke="url(#paint15_linear_16_490)" stroke-width="4"/>
<path opacity="0.246377" d="M720.039 1635.1C718.115 1645.03 722.648 1654.98 731.263 1659.73L1041.9 1831.05C1047.21 1833.97 1053.49 1834.58 1059.33 1832.74L1534.72 1682.33C1539.39 1680.86 1543.5 1677.9 1546.44 1673.9L1812 1313.39C1817.12 1306.44 1818.11 1297.23 1814.58 1289.47L1682.54 999.701C1679 991.938 1671.52 986.896 1663.1 986.602L1226.32 971.344C1221.47 971.174 1216.66 972.599 1212.61 975.41L799.224 1261.91C794.147 1265.43 790.622 1270.85 789.436 1276.97L720.039 1635.1Z" stroke="url(#paint16_linear_16_490)" stroke-width="4"/>
<path opacity="0.26087" d="M690.374 1593.71C687.974 1603.49 691.939 1613.6 700.212 1618.79L998.148 1805.75C1003.29 1808.98 1009.54 1809.93 1015.48 1808.38L1491.96 1684.59C1496.72 1683.35 1501 1680.59 1504.17 1676.7L1784.2 1332.89C1789.64 1326.2 1791.1 1317.08 1788 1309.16L1672.21 1014.06C1669.11 1006.15 1661.94 1000.73 1653.58 999.976L1223.47 961.296C1218.61 960.859 1213.71 962.039 1209.49 964.662L787.368 1226.98C782.102 1230.25 778.295 1235.52 776.802 1241.6L690.374 1593.71Z" stroke="url(#paint17_linear_16_490)" stroke-width="4"/>
<path opacity="0.275362" d="M662.42 1552.32C659.558 1561.91 662.953 1572.14 670.861 1577.75L955.379 1779.56C960.346 1783.08 966.547 1784.37 972.581 1783.14L1448.66 1685.76C1453.52 1684.77 1457.97 1682.2 1461.34 1678.44L1754.79 1351.92C1760.54 1345.52 1762.46 1336.51 1759.79 1328.46L1660.38 1028.92C1657.71 1020.87 1650.88 1015.09 1642.61 1013.89L1220.38 952.354C1215.52 951.647 1210.52 952.575 1206.15 955.001L776.702 1192.91C771.259 1195.92 767.178 1201.02 765.381 1207.05L662.42 1552.32Z" stroke="url(#paint18_linear_16_490)" stroke-width="4"/>
<path opacity="0.289855" d="M636.156 1511.01C632.848 1520.4 635.672 1530.71 643.193 1536.72L913.631 1752.53C918.402 1756.34 924.54 1757.97 930.649 1757.05L1404.9 1685.81C1409.84 1685.07 1414.45 1682.71 1418.03 1679.1L1723.81 1370.4C1729.85 1364.3 1732.22 1355.43 1729.99 1347.27L1647.03 1044.17C1644.8 1036.02 1638.33 1029.91 1630.17 1028.26L1216.97 944.5C1212.13 943.518 1207.06 944.188 1202.53 946.408L767.167 1159.75C761.559 1162.5 757.212 1167.41 755.113 1173.37L636.156 1511.01Z" stroke="url(#paint19_linear_16_490)" stroke-width="4"/>
<path opacity="0.304348" d="M611.559 1469.87C607.819 1479.03 610.074 1489.4 617.191 1495.78L872.936 1724.73C877.496 1728.81 883.554 1730.78 889.722 1730.19L1360.75 1684.73C1365.75 1684.25 1370.51 1682.11 1374.3 1678.64L1691.33 1388.24C1697.63 1382.47 1700.45 1373.75 1698.66 1365.52L1632.17 1059.75C1630.39 1051.52 1624.28 1045.09 1616.26 1043L1213.2 937.71C1208.39 936.453 1203.25 936.857 1198.58 938.861L758.701 1127.57C752.941 1130.05 748.335 1134.76 745.939 1140.63L611.559 1469.87Z" stroke="url(#paint20_linear_16_490)" stroke-width="4"/>
<path opacity="0.318841" d="M588.593 1429.01C584.441 1437.92 586.131 1448.31 592.825 1455.02L833.319 1696.22C837.654 1700.57 843.613 1702.87 849.825 1702.61L1316.26 1682.5C1321.32 1682.29 1326.23 1680.37 1330.21 1677.07L1657.38 1405.38C1663.94 1399.93 1667.18 1391.39 1665.83 1383.11L1615.81 1075.55C1614.46 1067.27 1608.74 1060.55 1600.88 1058.02L1209.02 931.958C1204.25 930.424 1199.06 930.557 1194.26 932.336L751.234 1096.43C745.335 1098.62 740.482 1103.11 737.792 1108.88L588.593 1429.01Z" stroke="url(#paint21_linear_16_490)" stroke-width="4"/>
<path opacity="0.333333" d="M567.227 1388.5C562.678 1397.14 563.81 1407.52 570.066 1414.55L794.807 1667.07C798.902 1671.67 804.746 1674.3 810.983 1674.37L1271.52 1679.11C1276.62 1679.16 1281.65 1677.49 1285.82 1674.36L1622.02 1421.72C1628.82 1416.61 1632.47 1408.28 1631.57 1399.97L1597.94 1091.51C1597.03 1083.19 1591.71 1076.2 1584.03 1073.25L1204.37 927.216C1199.66 925.405 1194.43 925.261 1189.5 926.806L744.702 1066.37C738.677 1068.26 733.586 1072.53 730.609 1078.18L567.227 1388.5Z" stroke="url(#paint22_linear_16_490)" stroke-width="4"/>
<path opacity="0.347826" d="M547.417 1348.43C542.492 1356.78 543.073 1367.12 548.879 1374.44L757.418 1637.33C761.259 1642.17 766.969 1645.14 773.216 1645.54L1226.57 1674.55C1231.7 1674.87 1236.86 1673.45 1241.21 1670.5L1585.33 1437.19C1592.34 1432.44 1596.39 1424.34 1595.92 1416.02L1578.58 1107.52C1578.11 1099.21 1573.2 1091.97 1565.73 1088.6L1199.21 923.455C1194.58 921.366 1189.31 920.939 1184.27 922.242L739.029 1037.44C732.895 1039.03 727.578 1043.05 724.319 1048.57L547.417 1348.43Z" stroke="url(#paint23_linear_16_490)" stroke-width="4"/>
<path opacity="0.362319" d="M529.12 1308.89C523.838 1316.93 523.879 1327.2 529.223 1334.78L721.169 1607.07C724.744 1612.14 730.302 1615.44 736.54 1616.17L1181.49 1668.8C1186.64 1669.41 1191.9 1668.24 1196.43 1665.49L1547.35 1451.73C1554.56 1447.34 1559 1439.49 1558.96 1431.19L1557.75 1123.52C1557.72 1115.22 1553.22 1107.76 1545.98 1104L1193.49 920.639C1188.94 918.274 1183.67 917.559 1178.53 918.612L734.145 1009.68C727.916 1010.96 722.385 1014.73 718.852 1020.1L529.12 1308.89Z" stroke="url(#paint24_linear_16_490)" stroke-width="4"/>
<path opacity="0.376812" d="M512.288 1269.96C506.668 1277.67 506.179 1287.84 511.052 1295.66L686.073 1576.37C689.367 1581.65 694.757 1585.26 700.967 1586.34L1136.35 1661.88C1141.49 1662.78 1146.86 1661.87 1151.55 1659.32L1508.17 1465.26C1515.55 1461.24 1520.36 1453.66 1520.75 1445.4L1535.47 1139.43C1535.86 1131.17 1531.79 1123.5 1524.8 1119.35L1187.16 918.733C1182.72 916.093 1177.45 915.087 1172.22 915.882L729.974 983.131C723.666 984.091 717.934 987.593 714.135 992.81L512.288 1269.96Z" stroke="url(#paint25_linear_16_490)" stroke-width="4"/>
<path opacity="0.391304" d="M496.868 1231.71C490.931 1239.08 489.925 1249.13 494.319 1257.15L652.138 1545.28C655.141 1550.76 660.344 1554.68 666.509 1556.1L1091.2 1653.79C1096.34 1654.97 1101.78 1654.33 1106.63 1652L1467.85 1477.73C1475.39 1474.1 1480.54 1466.8 1481.36 1458.61L1511.76 1155.15C1512.58 1146.96 1508.94 1139.11 1502.22 1134.59L1180.19 917.699C1175.87 914.788 1170.61 913.488 1165.31 914.017L726.44 957.825C720.07 958.461 714.152 961.684 710.094 966.727L496.868 1231.71Z" stroke="url(#paint26_linear_16_490)" stroke-width="4"/>
<path opacity="0.405797" d="M482.803 1194.21C476.569 1201.24 475.059 1211.13 478.969 1219.33L619.369 1513.87C622.07 1519.54 627.069 1523.76 633.169 1525.52L1046.13 1644.52C1051.23 1645.99 1056.75 1645.64 1061.74 1643.52L1426.46 1489.09C1434.14 1485.84 1439.62 1478.84 1440.86 1470.73L1486.66 1170.63C1487.89 1162.52 1484.7 1154.52 1478.26 1149.63L1172.53 917.497C1168.35 914.319 1163.12 912.722 1157.76 912.979L723.466 933.791C717.051 934.098 710.961 937.031 706.654 941.886L482.803 1194.21Z" stroke="url(#paint27_linear_16_490)" stroke-width="4"/>
<path opacity="0.42029" d="M470.035 1157.54C463.525 1164.2 461.525 1173.92 464.946 1182.28L587.768 1482.21C590.157 1488.05 594.935 1492.55 600.951 1494.65L1001.18 1634.09C1006.23 1635.85 1011.81 1635.79 1016.93 1633.91L1384.09 1499.27C1391.88 1496.41 1397.68 1489.74 1399.32 1481.73L1460.19 1185.77C1461.84 1177.77 1459.08 1169.64 1452.96 1164.41L1164.15 918.084C1160.12 914.645 1154.95 912.75 1149.54 912.729L720.973 911.052C714.531 911.026 708.285 913.657 703.739 918.311L470.035 1157.54Z" stroke="url(#paint28_linear_16_490)" stroke-width="4"/>
<path opacity="0.434783" d="M458.499 1121.76C451.734 1128.05 449.26 1137.58 452.19 1146.06L557.332 1450.36C559.4 1456.35 563.941 1461.13 569.853 1463.57L956.429 1622.52C961.417 1624.57 967.03 1624.8 972.278 1623.16L1340.81 1508.23C1348.69 1505.77 1354.78 1499.43 1356.83 1491.55L1432.4 1200.52C1434.44 1192.64 1432.14 1184.4 1426.33 1178.85L1155.01 919.418C1151.15 915.723 1146.04 913.531 1140.6 913.226L718.882 889.627C712.432 889.266 706.046 891.587 701.271 896.026L458.499 1121.76Z" stroke="url(#paint29_linear_16_490)" stroke-width="4"/>
<path opacity="0.449275" d="M448.131 1086.93C441.13 1092.84 438.197 1102.15 440.635 1110.73L528.056 1418.39C529.795 1424.51 534.081 1429.56 539.871 1432.32L911.931 1609.81C916.837 1612.15 922.473 1612.68 927.829 1611.29L1296.7 1515.93C1304.65 1513.88 1311.02 1507.88 1313.45 1500.14L1403.31 1214.8C1405.75 1207.07 1403.9 1198.74 1398.43 1192.89L1145.08 921.451C1141.41 917.509 1136.39 915.02 1130.93 914.428L717.114 869.531C710.674 868.832 704.165 870.833 699.173 875.047L448.131 1086.93Z" stroke="url(#paint30_linear_16_490)" stroke-width="4"/>
<path opacity="0.463768" d="M438.862 1053.11C431.646 1058.63 428.27 1067.71 430.216 1076.36L499.931 1386.35C501.333 1392.59 505.35 1397.9 510.998 1400.98L867.748 1596C872.555 1598.63 878.196 1599.46 883.647 1598.33L1251.84 1522.34C1259.84 1520.68 1266.46 1515.04 1269.28 1507.46L1372.99 1228.55C1375.81 1220.98 1374.4 1212.59 1369.3 1206.45L1134.34 924.138C1130.86 919.958 1125.95 917.174 1120.49 916.291L715.591 850.774C709.18 849.737 702.566 851.411 697.368 855.386L438.862 1053.11Z" stroke="url(#paint31_linear_16_490)" stroke-width="4"/>
<path opacity="0.478261" d="M430.621 1020.35C423.21 1025.47 419.407 1034.3 420.863 1043L472.944 1354.32C474.003 1360.65 477.736 1366.2 483.224 1369.6L823.938 1581.1C828.628 1584.01 834.257 1585.14 839.789 1584.29L1206.31 1527.4C1214.35 1526.16 1221.21 1520.88 1224.39 1513.48L1341.47 1241.7C1344.66 1234.31 1343.71 1225.88 1338.97 1219.47L1122.76 927.429C1119.49 923.021 1114.7 919.947 1109.26 918.771L714.233 833.36C707.87 831.984 701.168 833.324 695.778 837.05L430.621 1020.35Z" stroke="url(#paint32_linear_16_490)" stroke-width="4"/>
<path opacity="0.492754" d="M423.334 988.701C415.748 993.422 411.535 1001.98 412.503 1010.71L447.079 1322.35C447.79 1328.75 451.224 1334.53 456.533 1338.25L780.558 1565.15C785.114 1568.34 790.712 1569.77 796.311 1569.19L1160.21 1531.12C1168.25 1530.27 1175.33 1525.37 1178.87 1518.17L1308.81 1254.19C1312.35 1247 1311.85 1238.55 1307.49 1231.9L1110.31 931.277C1107.27 926.652 1102.62 923.292 1097.22 921.822L712.961 817.29C706.666 815.578 699.895 816.579 694.325 820.045L423.334 988.701Z" stroke="url(#paint33_linear_16_490)" stroke-width="4"/>
<path opacity="0.507246" d="M416.926 958.208C409.185 962.524 404.579 970.797 405.063 979.52L422.318 1290.5C422.676 1296.96 425.799 1302.95 430.91 1306.96L737.662 1548.16C742.066 1551.63 747.616 1553.37 753.265 1553.06L1113.6 1533.45C1121.64 1533.01 1128.91 1528.48 1132.8 1521.5L1275.05 1265.97C1278.94 1258.99 1278.89 1250.54 1274.91 1243.67L1096.97 935.63C1094.18 930.8 1089.69 927.161 1084.34 925.397L711.699 802.56C705.49 800.514 698.67 801.17 692.934 804.368L416.926 958.208Z" stroke="url(#paint34_linear_16_490)" stroke-width="4"/>
<path opacity="0.521739" d="M411.321 928.912C403.443 932.817 398.461 940.791 398.466 949.488L398.637 1258.83C398.641 1265.33 401.441 1271.51 406.336 1275.82L695.303 1530.19C699.538 1533.91 705.021 1535.96 710.705 1535.93L1066.59 1534.38C1074.6 1534.34 1082.05 1530.21 1086.27 1523.45L1240.25 1276.98C1244.47 1270.23 1244.87 1261.81 1241.3 1254.73L1082.74 940.437C1080.2 935.417 1075.89 931.506 1070.61 929.45L710.37 789.162C704.267 786.785 697.415 787.095 691.527 790.014L411.321 928.912Z" stroke="url(#paint35_linear_16_490)" stroke-width="4"/>
<path opacity="0.536232" d="M406.439 900.844C398.444 904.336 393.103 911.997 392.635 920.646L376.014 1227.4C375.66 1233.92 378.125 1240.27 382.788 1244.85L653.53 1511.25C657.579 1515.23 662.976 1517.58 668.679 1517.84L1019.26 1533.89C1027.22 1534.26 1034.82 1530.52 1039.36 1524L1204.47 1287.18C1209.01 1280.66 1209.85 1272.29 1206.69 1265.04L1067.59 945.647C1065.32 940.452 1061.2 936.278 1056.01 933.932L708.898 777.082C702.919 774.38 696.055 774.34 690.029 776.972L406.439 900.844Z" stroke="url(#paint36_linear_16_490)" stroke-width="4"/>
<path opacity="0.550725" d="M402.202 874.036C394.108 877.113 388.425 884.448 387.49 893.024L354.419 1196.26C353.708 1202.77 355.827 1209.28 360.242 1214.13L612.389 1491.39C616.236 1495.62 621.529 1498.27 627.235 1498.82L971.679 1531.99C979.575 1532.75 987.312 1529.42 992.161 1523.16L1167.76 1296.51C1172.61 1290.25 1173.89 1281.95 1171.15 1274.54L1051.51 951.209C1049.53 945.853 1045.61 941.427 1040.53 938.795L707.21 766.303C701.374 763.282 694.517 762.892 688.368 765.23L402.202 874.036Z" stroke="url(#paint37_linear_16_490)" stroke-width="4"/>
<path opacity="0.565217" d="M398.528 848.513C390.355 851.174 384.348 858.17 382.953 866.652L333.823 1165.46C332.755 1171.95 334.52 1178.59 338.671 1183.7L571.927 1470.65C575.556 1475.12 580.727 1478.06 586.419 1478.9L923.947 1528.67C931.756 1529.82 939.609 1526.89 944.752 1520.9L1130.2 1304.93C1135.34 1298.94 1137.05 1290.74 1134.73 1283.19L1034.5 957.069C1032.81 951.57 1029.12 946.903 1024.16 943.991L705.234 756.803C699.559 753.472 692.729 752.731 686.472 754.768L398.528 848.513Z" stroke="url(#paint38_linear_16_490)" stroke-width="4"/>
<path opacity="0.57971" d="M395.337 824.295C387.103 826.539 380.788 833.185 378.943 841.55L314.193 1135.06C312.77 1141.51 314.172 1148.26 318.044 1153.6L532.183 1449.08C535.58 1453.76 540.611 1456.99 546.273 1458.12L876.141 1523.93C883.845 1525.47 891.797 1522.94 897.218 1517.24L1091.84 1312.41C1097.26 1306.7 1099.4 1298.61 1097.5 1290.95L1016.55 963.176C1015.16 957.55 1011.71 952.656 1006.89 949.469L702.901 748.557C697.404 744.924 690.62 743.835 684.269 745.565L395.337 824.295Z" stroke="url(#paint39_linear_16_490)" stroke-width="4"/>
<path opacity="0.594203" d="M392.548 801.398C384.27 803.224 377.667 809.508 375.38 817.735L295.494 1105.09C293.718 1111.48 294.752 1118.33 298.332 1123.89L493.198 1426.71C496.349 1431.61 501.222 1435.12 506.837 1436.54L828.347 1517.78C835.928 1519.69 843.957 1517.58 849.643 1512.17L1052.74 1318.91C1058.42 1313.5 1060.98 1305.54 1059.52 1297.8L997.66 969.478C996.579 963.744 993.385 958.636 988.719 955.182L700.143 741.535C694.841 737.61 688.12 736.174 681.693 737.592L392.548 801.398Z" stroke="url(#paint40_linear_16_490)" stroke-width="4"/>
<path opacity="0.608696" d="M390.079 779.832C381.776 781.242 374.902 787.154 372.183 795.221L277.689 1075.62C275.564 1081.92 276.224 1088.84 279.499 1094.61L455.008 1403.6C457.899 1408.69 462.598 1412.47 468.15 1414.18L780.644 1510.23C788.085 1512.52 796.172 1510.81 802.108 1505.71L1012.97 1324.39C1018.91 1319.29 1021.88 1311.49 1020.85 1303.68L977.83 975.924C977.066 970.1 974.14 964.793 969.647 961.081L696.894 735.706C691.803 731.5 685.165 729.72 678.676 730.822L390.079 779.832Z" stroke="url(#paint41_linear_16_490)" stroke-width="4"/>
<path opacity="0.623188" d="M387.849 759.603C379.539 760.598 372.411 766.127 369.272 774.013L260.738 1046.67C258.269 1052.87 258.551 1059.85 261.511 1065.8L417.643 1379.8C420.264 1385.07 424.772 1389.11 430.246 1391.1L733.112 1501.3C740.396 1503.95 748.523 1502.66 754.693 1497.87L972.605 1328.84C978.775 1324.06 982.146 1316.43 981.557 1308.59L957.063 982.461C956.621 976.567 953.976 971.077 949.67 967.115L693.092 731.031C688.228 726.555 681.69 724.437 675.154 725.219L387.849 759.603Z" stroke="url(#paint42_linear_16_490)" stroke-width="4"/>
<path opacity="0.637681" d="M385.778 740.713C377.478 741.294 370.116 746.43 366.568 754.115L244.601 1018.3C241.794 1024.38 241.695 1031.38 244.329 1037.5L381.136 1355.35C383.474 1360.78 387.777 1365.07 393.157 1367.35L685.83 1491.01C692.94 1494.01 701.087 1493.14 707.475 1488.68L931.702 1332.23C938.091 1327.77 941.853 1320.34 941.699 1312.48L935.366 989.041C935.25 983.096 932.897 977.439 928.793 973.239L688.677 727.471C684.053 722.739 677.633 720.287 671.067 720.747L385.778 740.713Z" stroke="url(#paint43_linear_16_490)" stroke-width="4"/>
<path opacity="0.652174" d="M383.786 723.156C375.515 723.326 367.938 728.061 363.993 735.525L229.235 990.532C226.097 996.471 225.616 1003.48 227.915 1009.75L345.513 1330.3C347.56 1335.88 351.643 1340.42 356.913 1342.97L638.872 1479.38C645.794 1482.73 653.941 1482.27 660.532 1478.15L890.332 1334.54C896.923 1330.42 901.066 1323.21 901.346 1315.36L912.748 995.612C912.961 989.636 910.91 983.83 907.022 979.402L683.592 724.983C679.223 720.007 672.938 717.229 666.358 717.364L383.786 723.156Z" stroke="url(#paint44_linear_16_490)" stroke-width="4"/>
<path opacity="0.666667" d="M381.794 706.924C373.57 706.686 365.797 711.011 361.47 718.234L214.596 963.41C211.135 969.188 210.271 976.18 212.229 982.578L310.797 1304.72C312.544 1310.43 316.393 1315.19 321.54 1318.01L592.313 1466.46C599.03 1470.14 607.16 1470.09 613.936 1466.32L848.563 1335.76C855.34 1331.99 859.85 1325.01 860.561 1317.19L889.22 1002.13C889.765 996.139 888.025 990.201 884.364 985.557L677.785 723.519C673.682 718.315 667.548 715.217 660.969 715.026L381.794 706.924Z" stroke="url(#paint45_linear_16_490)" stroke-width="4"/>
<path opacity="0.681159" d="M379.727 692.005C371.566 691.362 363.618 695.269 358.923 702.231L200.638 936.963C196.863 942.562 195.619 949.517 197.228 956.024L277.009 1278.65C278.448 1284.47 282.052 1289.45 287.06 1292.53L546.223 1452.26C552.721 1456.27 560.814 1456.62 567.758 1453.21L806.463 1335.87C813.407 1332.46 818.273 1325.73 819.411 1317.97L864.796 1008.54C865.673 1002.56 864.251 996.505 860.83 991.659L671.202 723.032C667.377 717.613 661.411 714.204 654.849 713.687L379.727 692.005Z" stroke="url(#paint46_linear_16_490)" stroke-width="4"/>
<path opacity="0.695652" d="M377.508 678.379C369.429 677.336 361.325 680.818 356.278 687.501L187.315 911.222C183.236 916.623 181.613 923.518 182.869 930.115L244.166 1252.15C245.291 1258.06 248.638 1263.24 253.495 1266.59L500.67 1436.84C506.935 1441.15 514.972 1441.92 522.066 1438.87L764.099 1334.87C771.194 1331.82 776.4 1325.37 777.96 1317.69L839.492 1014.79C840.702 1008.84 839.604 1002.7 836.433 997.66L663.799 723.468C660.262 717.851 654.478 714.139 647.949 713.296L377.508 678.379Z" stroke="url(#paint47_linear_16_490)" stroke-width="4"/>
<path opacity="0.710145" d="M375.064 666.024C367.084 664.587 358.847 667.637 353.464 674.022L174.579 886.212C170.207 891.398 168.21 898.212 169.108 904.879L212.282 1225.27C213.089 1231.26 216.169 1236.63 220.862 1240.22L455.719 1420.23C461.738 1424.84 469.7 1426 476.926 1423.33L721.54 1332.76C728.766 1330.08 734.297 1323.92 736.272 1316.35L813.328 1020.86C814.867 1014.95 814.1 1008.73 811.189 1003.52L655.531 724.775C652.292 718.975 646.704 714.969 640.223 713.801L375.064 666.024Z" stroke="url(#paint48_linear_16_490)" stroke-width="4"/>
<path opacity="0.724638" d="M372.323 654.915C364.461 653.088 356.111 655.701 350.41 661.771L162.382 861.956C157.728 866.911 155.361 873.622 155.9 880.339L181.368 1198.07C181.853 1204.12 184.656 1209.66 189.172 1213.5L411.431 1402.47C417.192 1407.37 425.06 1408.93 432.399 1406.64L678.85 1329.53C686.189 1327.24 692.028 1321.39 694.41 1313.94L786.322 1026.68C788.189 1020.84 787.756 1014.56 785.113 1009.18L646.357 726.895C643.424 720.928 638.046 716.639 631.629 715.148L372.323 654.915Z" stroke="url(#paint49_linear_16_490)" stroke-width="4"/>
<path opacity="0.73913" d="M369.218 645.02C361.49 642.812 353.052 644.981 347.051 650.718L150.674 838.476C145.752 843.182 143.022 849.77 143.199 856.517L151.433 1170.6C151.593 1176.69 154.11 1182.4 158.439 1186.47L367.866 1383.63C373.355 1388.8 381.111 1390.75 388.544 1388.84L636.097 1325.21C643.529 1323.3 649.658 1317.77 652.439 1310.48L758.498 1032.21C760.691 1026.46 760.593 1020.14 758.228 1014.61L636.242 729.771C633.621 723.652 628.468 719.091 622.128 717.28L369.218 645.02Z" stroke="url(#paint50_linear_16_490)" stroke-width="4"/>
<path opacity="0.753623" d="M365.681 636.304C358.105 633.722 349.601 635.445 343.321 640.833L139.406 815.79C134.229 820.232 131.143 826.676 130.958 833.432L122.48 1142.93C122.313 1149.04 124.537 1154.89 128.668 1159.19L325.076 1363.75C330.284 1369.17 337.909 1371.52 345.415 1370L593.343 1319.78C600.848 1318.26 607.25 1313.08 610.418 1305.96L729.881 1037.43L731.687 1038.2L729.881 1037.43C732.394 1031.78 732.635 1025.43 730.553 1019.77L625.151 733.341C622.85 727.088 617.932 722.266 611.686 720.137L365.681 636.304Z" stroke="url(#paint51_linear_16_490)" stroke-width="4"/>
<path opacity="0.768116" d="M361.65 628.729C354.243 625.782 345.698 627.055 339.159 632.078L128.528 793.91C123.111 798.073 119.678 804.352 119.132 811.098L94.5121 1115.1C94.0165 1121.22 95.9413 1127.2 99.8635 1131.72L283.114 1342.89C288.03 1348.55 295.506 1351.27 303.064 1350.15L550.653 1313.28C558.21 1312.15 564.864 1307.32 568.407 1300.4L700.498 1042.28C703.325 1036.75 703.906 1030.4 702.113 1024.62L613.056 737.544C611.08 731.173 606.41 726.101 600.272 723.659L361.65 628.729Z" stroke="url(#paint52_linear_16_490)" stroke-width="4"/>
<path opacity="0.782609" d="M357.064 622.253C349.844 618.951 341.282 619.772 334.508 624.416L117.991 772.851C112.349 776.719 108.578 782.815 107.672 789.532L67.527 1087.18C66.703 1093.29 68.3225 1099.38 72.0269 1104.11L242.026 1321.1C246.641 1326.99 253.949 1330.08 261.538 1329.35L508.087 1305.7C515.676 1304.98 522.56 1300.52 526.467 1293.82L670.376 1046.72C673.512 1041.34 674.433 1035 672.934 1029.11L599.933 742.318C598.285 735.845 593.873 730.535 587.859 727.785L357.064 622.253Z" stroke="url(#paint53_linear_16_490)" stroke-width="4"/>
<path opacity="0.797101" d="M351.868 616.829C344.851 613.183 336.297 613.553 329.311 617.804L107.745 752.619C101.893 756.179 97.7948 762.072 96.532 768.74L41.5208 1059.22C40.3691 1065.3 41.6781 1071.49 45.156 1076.42L201.856 1298.45C206.161 1304.54 213.284 1308 220.882 1307.67L465.705 1297.09C473.304 1296.76 480.397 1292.69 484.652 1286.22L639.546 1050.73C642.984 1045.51 644.244 1039.2 643.044 1033.22L585.759 747.596C584.444 741.039 580.3 735.502 574.422 732.449L351.868 616.829Z" stroke="url(#paint54_linear_16_490)" stroke-width="4"/>
<path opacity="0.811594" d="M346.007 612.409C339.209 608.432 330.689 608.351 323.516 612.197L97.7392 733.22C91.6954 736.459 87.2809 742.131 85.6646 748.732L16.4856 1031.27C15.0073 1037.3 16.0015 1043.59 19.2447 1048.71L162.642 1274.99C166.63 1281.28 173.549 1285.09 181.135 1285.16L423.565 1287.45C431.152 1287.52 438.43 1283.85 443.019 1277.64L608.039 1054.27C611.771 1049.22 613.369 1042.96 612.472 1036.9L570.516 753.314C569.536 746.689 565.671 740.939 559.944 737.588L346.007 612.409Z" stroke="url(#paint55_linear_16_490)" stroke-width="4"/>
<path opacity="0.826087" d="M339.431 608.943C332.869 604.647 324.41 604.119 317.074 607.548L87.9251 714.658C81.7065 717.564 76.9881 722.997 75.0228 729.512L-7.58937 1003.39C-9.39231 1009.36 -8.71677 1015.72 -5.71591 1021.02L124.419 1250.81C128.082 1257.27 134.78 1261.42 142.332 1261.89L381.721 1276.82C389.273 1277.29 396.713 1274.03 401.618 1268.1L575.888 1057.31C579.906 1052.45 581.839 1046.25 581.249 1040.12L554.192 759.408C553.549 752.729 549.97 746.779 544.408 743.138L339.431 608.943Z" stroke="url(#paint56_linear_16_490)" stroke-width="4"/>
<path opacity="0.84058" d="M332.096 606.374C325.785 601.774 317.413 600.804 309.942 603.806L78.2543 696.932C71.8792 699.494 66.87 704.671 64.5609 711.082L-30.7164 975.626C-32.8417 981.527 -32.4882 987.947 -29.7369 993.417L87.218 1225.95C90.5504 1232.57 97.0102 1237.05 104.505 1237.91L340.227 1265.23C347.722 1266.1 355.298 1263.26 360.501 1257.62L543.127 1059.81C547.423 1055.15 549.689 1049.04 549.408 1042.86L536.777 765.809C536.471 759.094 533.188 752.957 527.803 749.032L332.096 606.374Z" stroke="url(#paint57_linear_16_490)" stroke-width="4"/>
<path opacity="0.855072" d="M323.959 604.646C317.914 599.757 309.655 598.351 302.076 600.92L68.6786 680.039C62.1657 682.247 56.8797 687.15 54.2328 693.44L-52.9122 948.041C-55.3569 953.85 -55.3285 960.317 -52.8333 965.95L51.064 1200.49C54.061 1207.26 60.2664 1212.04 67.6809 1213.31L299.132 1252.71C306.547 1253.98 314.234 1251.56 319.716 1246.24L509.791 1061.75C514.355 1057.32 516.952 1051.3 516.982 1045.08L518.265 772.45C518.297 765.715 515.317 759.404 510.122 755.203L323.959 604.646Z" stroke="url(#paint58_linear_16_490)" stroke-width="4"/>
<path opacity="0.869565" d="M314.983 603.701C309.218 598.54 301.098 596.707 293.441 598.835L59.1513 663.974C52.5202 665.818 46.9721 670.433 43.9941 676.584L-74.1949 920.682C-76.9559 926.384 -77.255 932.886 -75.0224 938.672L15.9794 1174.51C18.6372 1181.39 24.5722 1186.48 31.884 1188.13L258.484 1239.3C265.796 1240.96 273.567 1238.97 279.309 1233.98L475.917 1063.1C480.741 1058.91 483.665 1053 484.007 1046.75L498.654 779.267C499.023 772.527 496.354 766.055 491.362 761.587L314.983 603.701Z" stroke="url(#paint59_linear_16_490)" stroke-width="4"/>
<path opacity="0.884058" d="M305.133 603.477C299.662 598.063 291.708 595.812 284 597.497L49.6257 648.729C42.8964 650.2 37.1015 654.512 33.7998 660.507L-94.587 893.599C-97.6606 899.179 -98.2897 905.704 -96.3256 911.634L-18.0194 1148.06C-15.7038 1155.05 -10.0542 1160.41 -2.86788 1162.45L218.326 1225.04C225.513 1227.08 233.341 1225.52 239.321 1220.88L441.542 1063.84C446.614 1059.9 449.862 1054.12 450.518 1047.85L477.947 786.191C478.652 779.462 476.3 772.844 471.522 768.117L305.133 603.477Z" stroke="url(#paint60_linear_16_490)" stroke-width="4"/>
<path opacity="0.898551" d="M294.382 603.912C289.216 598.263 281.453 595.607 273.725 596.846L40.058 634.292C33.2511 635.382 27.2257 639.378 23.6083 645.2L-114.111 866.842C-117.494 872.285 -118.455 878.82 -116.765 884.885L-50.9185 1121.22C-48.947 1128.3 -43.597 1133.93 -36.5585 1136.33L178.702 1209.97C185.74 1212.38 193.598 1211.26 199.793 1206.98L406.706 1063.95C412.016 1060.28 415.583 1054.63 416.555 1048.36L456.149 793.157C457.189 786.454 455.16 779.703 450.609 774.727L294.382 603.912Z" stroke="url(#paint61_linear_16_490)" stroke-width="4"/>
<path opacity="0.913043" d="M282.703 604.942C277.853 599.078 270.306 596.033 262.588 596.825L30.4033 620.65C23.54 621.354 17.3007 625.019 13.3765 630.652L-132.795 840.457C-136.482 845.749 -137.777 852.281 -136.367 858.472L-82.711 1094.06C-81.0844 1101.21 -76.0473 1107.08 -69.1787 1109.86L139.646 1194.13C146.515 1196.9 154.375 1196.22 160.762 1192.32L371.445 1063.4C376.981 1060.01 380.864 1054.52 382.153 1048.26L433.27 800.1C434.643 793.437 432.942 786.568 428.628 781.353L282.703 604.942Z" stroke="url(#paint62_linear_16_490)" stroke-width="4"/>
<path opacity="0.927536" d="M270.076 606.502C265.551 600.445 258.245 597.026 250.567 597.374L20.6201 607.787C13.722 608.1 7.2863 611.422 3.0645 616.849L-150.667 814.49C-154.655 819.617 -156.286 826.133 -155.161 832.442L-113.392 1066.66C-112.11 1073.85 -107.398 1079.95 -100.721 1083.08L101.196 1177.56C107.873 1180.69 115.706 1180.45 122.261 1176.93L335.8 1062.18C341.552 1059.09 345.746 1053.77 347.353 1047.53L409.325 806.954C411.026 800.347 409.659 793.373 405.593 787.931L270.076 606.502Z" stroke="url(#paint63_linear_16_490)" stroke-width="4"/>
<path opacity="0.942029" d="M256.485 608.528C252.294 602.298 245.25 598.524 237.643 598.432L10.6683 595.686C3.75756 595.602 -2.85651 598.569 -7.36583 603.776L-167.759 788.986C-172.042 793.932 -174.011 800.422 -173.176 806.84L-142.963 1039.08C-142.024 1046.3 -137.648 1052.61 -131.183 1056.07L63.382 1160.33C69.8471 1163.79 77.626 1163.99 84.3229 1160.86L299.811 1060.28C305.766 1057.5 310.267 1052.37 312.193 1046.16L384.329 813.656C386.357 807.12 385.327 800.056 381.52 794.397L256.485 608.528Z" stroke="url(#paint64_linear_16_490)" stroke-width="4"/>
<path opacity="0.956522" d="M241.917 610.953C238.067 604.574 231.308 600.465 223.801 599.94L0.508778 584.325C-6.39225 583.843 -13.166 586.444 -17.9521 591.415L-184.103 763.988C-188.677 768.739 -190.986 775.188 -190.446 781.706L-171.427 1011.39C-170.829 1018.62 -166.799 1025.12 -160.566 1028.91L26.2321 1142.46C32.465 1146.25 40.1617 1146.88 46.9751 1144.16L263.52 1057.68C269.665 1055.22 274.468 1050.29 276.714 1044.12L358.305 820.145C360.655 813.693 359.966 806.555 356.427 800.691L241.917 610.953Z" stroke="url(#paint65_linear_16_490)" stroke-width="4"/>
<path opacity="0.971014" d="M226.365 613.711C222.861 607.205 216.406 602.784 209.028 601.835L-9.89641 573.683C-16.7649 572.8 -23.6789 575.026 -28.7305 579.746L-199.735 739.534C-204.595 744.075 -207.246 750.473 -207.007 757.082L-198.796 983.671C-198.534 990.888 -194.858 997.551 -188.876 1001.65L-10.2304 1124.03C-4.24851 1128.12 3.33849 1129.18 10.2417 1126.87L226.965 1054.36C233.287 1052.25 238.387 1047.53 240.954 1041.42L331.275 826.358C333.943 820.005 333.598 812.808 330.337 806.751L226.365 613.711Z" stroke="url(#paint66_linear_16_490)" stroke-width="4"/>
<path opacity="0.985507" d="M209.826 616.736C206.671 610.127 200.539 605.417 193.319 604.056L-20.581 563.735C-27.3939 562.451 -34.4283 564.291 -39.7333 568.746L-214.693 715.663C-219.833 719.979 -222.828 726.313 -222.894 733.005L-225.081 955.981C-225.151 963.171 -221.835 969.974 -216.122 974.363L-45.9833 1105.06C-40.2703 1109.45 -32.82 1110.92 -25.854 1109.03L190.189 1050.33C196.674 1048.57 202.067 1044.08 204.955 1038.03L303.269 832.238C306.25 825.998 306.252 818.756 303.276 812.52L209.826 616.736Z" stroke="url(#paint67_linear_16_490)" stroke-width="4"/>
<path d="M192.299 619.964C189.496 613.275 183.702 608.301 176.667 606.541L-31.5798 554.455C-38.3138 552.771 -45.4481 554.218 -50.9937 558.392L-229.017 692.411C-234.432 696.487 -237.773 702.744 -238.148 709.511L-250.3 928.392C-250.697 935.535 -247.747 942.456 -242.319 947.117L-81.0113 1085.63C-75.5836 1090.29 -68.2962 1092.16 -61.2952 1090.69L153.232 1045.58C159.864 1044.18 165.544 1039.94 168.755 1033.97L274.316 837.727C277.604 831.614 277.956 824.343 275.273 817.941L192.299 619.964Z" stroke="url(#paint68_linear_16_490)" stroke-width="4"/>
<defs>
<linearGradient id="paint0_linear_16_490" x1="1433.38" y1="2232.13" x2="1832.64" y2="821.199" gradientUnits="userSpaceOnUse">
<stop stop-color="#FF1CF7"/>
<stop offset="1" stop-color="#00F0FF"/>
</linearGradient>
<linearGradient id="paint1_linear_16_490" x1="1377.03" y1="2204.73" x2="1848.13" y2="827.506" gradientUnits="userSpaceOnUse">
<stop stop-color="#FF1CF7"/>
<stop offset="1" stop-color="#00F0FF"/>
</linearGradient>
<linearGradient id="paint2_linear_16_490" x1="1321.95" y1="2175.74" x2="1862.54" y2="836.162" gradientUnits="userSpaceOnUse">
<stop stop-color="#FF1CF7"/>
<stop offset="1" stop-color="#00F0FF"/>
</linearGradient>
<linearGradient id="paint3_linear_16_490" x1="1268.22" y1="2145.24" x2="1875.67" y2="847.1" gradientUnits="userSpaceOnUse">
<stop stop-color="#FF1CF7"/>
<stop offset="1" stop-color="#00F0FF"/>
</linearGradient>
<linearGradient id="paint4_linear_16_490" x1="1215.9" y1="2113.3" x2="1887.32" y2="860.231" gradientUnits="userSpaceOnUse">
<stop stop-color="#FF1CF7"/>
<stop offset="1" stop-color="#00F0FF"/>
</linearGradient>
<linearGradient id="paint5_linear_16_490" x1="1165.04" y1="2080.03" x2="1897.32" y2="875.444" gradientUnits="userSpaceOnUse">
<stop stop-color="#FF1CF7"/>
<stop offset="1" stop-color="#00F0FF"/>
</linearGradient>
<linearGradient id="paint6_linear_16_490" x1="1115.72" y1="2045.5" x2="1905.48" y2="892.605" gradientUnits="userSpaceOnUse">
<stop stop-color="#FF1CF7"/>
<stop offset="1" stop-color="#00F0FF"/>
</linearGradient>
<linearGradient id="paint7_linear_16_490" x1="1067.97" y1="2009.81" x2="1911.64" y2="911.56" gradientUnits="userSpaceOnUse">
<stop stop-color="#FF1CF7"/>
<stop offset="1" stop-color="#00F0FF"/>
</linearGradient>
<linearGradient id="paint8_linear_16_490" x1="1021.84" y1="1973.07" x2="1915.66" y2="932.135" gradientUnits="userSpaceOnUse">
<stop stop-color="#FF1CF7"/>
<stop offset="1" stop-color="#00F0FF"/>
</linearGradient>
<linearGradient id="paint9_linear_16_490" x1="977.376" y1="1935.35" x2="1917.41" y2="954.144" gradientUnits="userSpaceOnUse">
<stop stop-color="#FF1CF7"/>
<stop offset="1" stop-color="#00F0FF"/>
</linearGradient>
<linearGradient id="paint10_linear_16_490" x1="934.602" y1="1896.78" x2="1916.8" y2="977.386" gradientUnits="userSpaceOnUse">
<stop stop-color="#FF1CF7"/>
<stop offset="1" stop-color="#00F0FF"/>
</linearGradient>
<linearGradient id="paint11_linear_16_490" x1="893.548" y1="1857.44" x2="1913.73" y2="1001.65" gradientUnits="userSpaceOnUse">
<stop stop-color="#FF1CF7"/>
<stop offset="1" stop-color="#00F0FF"/>
</linearGradient>
<linearGradient id="paint12_linear_16_490" x1="854.233" y1="1817.44" x2="1908.15" y2="1026.72" gradientUnits="userSpaceOnUse">
<stop stop-color="#FF1CF7"/>
<stop offset="1" stop-color="#00F0FF"/>
</linearGradient>
<linearGradient id="paint13_linear_16_490" x1="816.674" y1="1776.88" x2="1900.03" y2="1052.37" gradientUnits="userSpaceOnUse">
<stop stop-color="#FF1CF7"/>
<stop offset="1" stop-color="#00F0FF"/>
</linearGradient>
<linearGradient id="paint14_linear_16_490" x1="780.879" y1="1735.86" x2="1889.37" y2="1078.4" gradientUnits="userSpaceOnUse">
<stop stop-color="#FF1CF7"/>
<stop offset="1" stop-color="#00F0FF"/>
</linearGradient>
<linearGradient id="paint15_linear_16_490" x1="746.852" y1="1694.49" x2="1876.18" y2="1104.58" gradientUnits="userSpaceOnUse">
<stop stop-color="#FF1CF7"/>
<stop offset="1" stop-color="#00F0FF"/>
</linearGradient>
<linearGradient id="paint16_linear_16_490" x1="714.59" y1="1652.85" x2="1860.5" y2="1130.71" gradientUnits="userSpaceOnUse">
<stop stop-color="#FF1CF7"/>
<stop offset="1" stop-color="#00F0FF"/>
</linearGradient>
<linearGradient id="paint17_linear_16_490" x1="684.086" y1="1611.07" x2="1842.39" y2="1156.6" gradientUnits="userSpaceOnUse">
<stop stop-color="#FF1CF7"/>
<stop offset="1" stop-color="#00F0FF"/>
</linearGradient>
<linearGradient id="paint18_linear_16_490" x1="655.325" y1="1569.23" x2="1821.93" y2="1182.07" gradientUnits="userSpaceOnUse">
<stop stop-color="#FF1CF7"/>
<stop offset="1" stop-color="#00F0FF"/>
</linearGradient>
<linearGradient id="paint19_linear_16_490" x1="628.288" y1="1527.42" x2="1799.22" y2="1206.94" gradientUnits="userSpaceOnUse">
<stop stop-color="#FF1CF7"/>
<stop offset="1" stop-color="#00F0FF"/>
</linearGradient>
<linearGradient id="paint20_linear_16_490" x1="602.952" y1="1485.76" x2="1774.36" y2="1231.07" gradientUnits="userSpaceOnUse">
<stop stop-color="#FF1CF7"/>
<stop offset="1" stop-color="#00F0FF"/>
</linearGradient>
<linearGradient id="paint21_linear_16_490" x1="579.287" y1="1444.33" x2="1747.48" y2="1254.33" gradientUnits="userSpaceOnUse">
<stop stop-color="#FF1CF7"/>
<stop offset="1" stop-color="#00F0FF"/>
</linearGradient>
<linearGradient id="paint22_linear_16_490" x1="557.258" y1="1403.22" x2="1718.69" y2="1276.6" gradientUnits="userSpaceOnUse">
<stop stop-color="#FF1CF7"/>
<stop offset="1" stop-color="#00F0FF"/>
</linearGradient>
<linearGradient id="paint23_linear_16_490" x1="536.827" y1="1362.52" x2="1688.14" y2="1297.8" gradientUnits="userSpaceOnUse">
<stop stop-color="#FF1CF7"/>
<stop offset="1" stop-color="#00F0FF"/>
</linearGradient>
<linearGradient id="paint24_linear_16_490" x1="517.949" y1="1322.32" x2="1655.96" y2="1317.83" gradientUnits="userSpaceOnUse">
<stop stop-color="#FF1CF7"/>
<stop offset="1" stop-color="#00F0FF"/>
</linearGradient>
<linearGradient id="paint25_linear_16_490" x1="500.576" y1="1282.7" x2="1622.28" y2="1336.64" gradientUnits="userSpaceOnUse">
<stop stop-color="#FF1CF7"/>
<stop offset="1" stop-color="#00F0FF"/>
</linearGradient>
<linearGradient id="paint26_linear_16_490" x1="484.657" y1="1243.75" x2="1587.23" y2="1354.2" gradientUnits="userSpaceOnUse">
<stop stop-color="#FF1CF7"/>
<stop offset="1" stop-color="#00F0FF"/>
</linearGradient>
<linearGradient id="paint27_linear_16_490" x1="470.135" y1="1205.53" x2="1550.94" y2="1370.46" gradientUnits="userSpaceOnUse">
<stop stop-color="#FF1CF7"/>
<stop offset="1" stop-color="#00F0FF"/>
</linearGradient>
<linearGradient id="paint28_linear_16_490" x1="456.951" y1="1168.11" x2="1513.54" y2="1385.41" gradientUnits="userSpaceOnUse">
<stop stop-color="#FF1CF7"/>
<stop offset="1" stop-color="#00F0FF"/>
</linearGradient>
<linearGradient id="paint29_linear_16_490" x1="445.041" y1="1131.58" x2="1475.13" y2="1399.05" gradientUnits="userSpaceOnUse">
<stop stop-color="#FF1CF7"/>
<stop offset="1" stop-color="#00F0FF"/>
</linearGradient>
<linearGradient id="paint30_linear_16_490" x1="434.339" y1="1095.99" x2="1435.82" y2="1411.39" gradientUnits="userSpaceOnUse">
<stop stop-color="#FF1CF7"/>
<stop offset="1" stop-color="#00F0FF"/>
</linearGradient>
<linearGradient id="paint31_linear_16_490" x1="424.776" y1="1061.39" x2="1395.72" y2="1422.43" gradientUnits="userSpaceOnUse">
<stop stop-color="#FF1CF7"/>
<stop offset="1" stop-color="#00F0FF"/>
</linearGradient>
<linearGradient id="paint32_linear_16_490" x1="416.28" y1="1027.86" x2="1354.91" y2="1432.21" gradientUnits="userSpaceOnUse">
<stop stop-color="#FF1CF7"/>
<stop offset="1" stop-color="#00F0FF"/>
</linearGradient>
<linearGradient id="paint33_linear_16_490" x1="408.778" y1="995.426" x2="1313.47" y2="1440.74" gradientUnits="userSpaceOnUse">
<stop stop-color="#FF1CF7"/>
<stop offset="1" stop-color="#00F0FF"/>
</linearGradient>
<linearGradient id="paint34_linear_16_490" x1="402.192" y1="964.148" x2="1271.48" y2="1448.05" gradientUnits="userSpaceOnUse">
<stop stop-color="#FF1CF7"/>
<stop offset="1" stop-color="#00F0FF"/>
</linearGradient>
<linearGradient id="paint35_linear_16_490" x1="396.447" y1="934.065" x2="1228.98" y2="1454.18" gradientUnits="userSpaceOnUse">
<stop stop-color="#FF1CF7"/>
<stop offset="1" stop-color="#00F0FF"/>
</linearGradient>
<linearGradient id="paint36_linear_16_490" x1="391.461" y1="905.212" x2="1186.04" y2="1459.16" gradientUnits="userSpaceOnUse">
<stop stop-color="#FF1CF7"/>
<stop offset="1" stop-color="#00F0FF"/>
</linearGradient>
<linearGradient id="paint37_linear_16_490" x1="387.154" y1="877.622" x2="1142.7" y2="1463" gradientUnits="userSpaceOnUse">
<stop stop-color="#FF1CF7"/>
<stop offset="1" stop-color="#00F0FF"/>
</linearGradient>
<linearGradient id="paint38_linear_16_490" x1="383.447" y1="851.32" x2="1099.01" y2="1465.75" gradientUnits="userSpaceOnUse">
<stop stop-color="#FF1CF7"/>
<stop offset="1" stop-color="#00F0FF"/>
</linearGradient>
<linearGradient id="paint39_linear_16_490" x1="380.257" y1="826.328" x2="1054.98" y2="1467.42" gradientUnits="userSpaceOnUse">
<stop stop-color="#FF1CF7"/>
<stop offset="1" stop-color="#00F0FF"/>
</linearGradient>
<linearGradient id="paint40_linear_16_490" x1="377.502" y1="802.662" x2="1010.66" y2="1468.04" gradientUnits="userSpaceOnUse">
<stop stop-color="#FF1CF7"/>
<stop offset="1" stop-color="#00F0FF"/>
</linearGradient>
<linearGradient id="paint41_linear_16_490" x1="375.1" y1="780.337" x2="966.073" y2="1467.62" gradientUnits="userSpaceOnUse">
<stop stop-color="#FF1CF7"/>
<stop offset="1" stop-color="#00F0FF"/>
</linearGradient>
<linearGradient id="paint42_linear_16_490" x1="372.969" y1="759.356" x2="921.231" y2="1466.17" gradientUnits="userSpaceOnUse">
<stop stop-color="#FF1CF7"/>
<stop offset="1" stop-color="#00F0FF"/>
</linearGradient>
<linearGradient id="paint43_linear_16_490" x1="371.029" y1="739.723" x2="876.159" y2="1463.7" gradientUnits="userSpaceOnUse">
<stop stop-color="#FF1CF7"/>
<stop offset="1" stop-color="#00F0FF"/>
</linearGradient>
<linearGradient id="paint44_linear_16_490" x1="369.2" y1="721.435" x2="830.88" y2="1460.21" gradientUnits="userSpaceOnUse">
<stop stop-color="#FF1CF7"/>
<stop offset="1" stop-color="#00F0FF"/>
</linearGradient>
<linearGradient id="paint45_linear_16_490" x1="367.403" y1="704.483" x2="785.416" y2="1455.7" gradientUnits="userSpaceOnUse">
<stop stop-color="#FF1CF7"/>
<stop offset="1" stop-color="#00F0FF"/>
</linearGradient>
<linearGradient id="paint46_linear_16_490" x1="365.561" y1="688.857" x2="739.79" y2="1450.15" gradientUnits="userSpaceOnUse">
<stop stop-color="#FF1CF7"/>
<stop offset="1" stop-color="#00F0FF"/>
</linearGradient>
<linearGradient id="paint47_linear_16_490" x1="363.596" y1="674.538" x2="694.03" y2="1443.56" gradientUnits="userSpaceOnUse">
<stop stop-color="#FF1CF7"/>
<stop offset="1" stop-color="#00F0FF"/>
</linearGradient>
<linearGradient id="paint48_linear_16_490" x1="361.438" y1="661.507" x2="648.169" y2="1435.91" gradientUnits="userSpaceOnUse">
<stop stop-color="#FF1CF7"/>
<stop offset="1" stop-color="#00F0FF"/>
</linearGradient>
<linearGradient id="paint49_linear_16_490" x1="359.012" y1="649.738" x2="602.242" y2="1427.18" gradientUnits="userSpaceOnUse">
<stop stop-color="#FF1CF7"/>
<stop offset="1" stop-color="#00F0FF"/>
</linearGradient>
<linearGradient id="paint50_linear_16_490" x1="356.25" y1="639.202" x2="556.291" y2="1417.36" gradientUnits="userSpaceOnUse">
<stop stop-color="#FF1CF7"/>
<stop offset="1" stop-color="#00F0FF"/>
</linearGradient>
<linearGradient id="paint51_linear_16_490" x1="353.085" y1="629.865" x2="510.366" y2="1406.43" gradientUnits="userSpaceOnUse">
<stop stop-color="#FF1CF7"/>
<stop offset="1" stop-color="#00F0FF"/>
</linearGradient>
<linearGradient id="paint52_linear_16_490" x1="349.455" y1="621.689" x2="464.52" y2="1394.36" gradientUnits="userSpaceOnUse">
<stop stop-color="#FF1CF7"/>
<stop offset="1" stop-color="#00F0FF"/>
</linearGradient>
<linearGradient id="paint53_linear_16_490" x1="345.297" y1="614.637" x2="418.816" y2="1381.15" gradientUnits="userSpaceOnUse">
<stop stop-color="#FF1CF7"/>
<stop offset="1" stop-color="#00F0FF"/>
</linearGradient>
<linearGradient id="paint54_linear_16_490" x1="340.555" y1="608.661" x2="373.321" y2="1366.78" gradientUnits="userSpaceOnUse">
<stop stop-color="#FF1CF7"/>
<stop offset="1" stop-color="#00F0FF"/>
</linearGradient>
<linearGradient id="paint55_linear_16_490" x1="335.174" y1="603.716" x2="328.109" y2="1351.25" gradientUnits="userSpaceOnUse">
<stop stop-color="#FF1CF7"/>
<stop offset="1" stop-color="#00F0FF"/>
</linearGradient>
<linearGradient id="paint56_linear_16_490" x1="329.103" y1="599.753" x2="283.259" y2="1334.55" gradientUnits="userSpaceOnUse">
<stop stop-color="#FF1CF7"/>
<stop offset="1" stop-color="#00F0FF"/>
</linearGradient>
<linearGradient id="paint57_linear_16_490" x1="322.296" y1="596.719" x2="238.856" y2="1316.69" gradientUnits="userSpaceOnUse">
<stop stop-color="#FF1CF7"/>
<stop offset="1" stop-color="#00F0FF"/>
</linearGradient>
<linearGradient id="paint58_linear_16_490" x1="314.71" y1="594.557" x2="194.988" y2="1297.69" gradientUnits="userSpaceOnUse">
<stop stop-color="#FF1CF7"/>
<stop offset="1" stop-color="#00F0FF"/>
</linearGradient>
<linearGradient id="paint59_linear_16_490" x1="306.304" y1="593.212" x2="151.744" y2="1277.57" gradientUnits="userSpaceOnUse">
<stop stop-color="#FF1CF7"/>
<stop offset="1" stop-color="#00F0FF"/>
</linearGradient>
<linearGradient id="paint60_linear_16_490" x1="297.043" y1="592.624" x2="109.217" y2="1256.37" gradientUnits="userSpaceOnUse">
<stop stop-color="#FF1CF7"/>
<stop offset="1" stop-color="#00F0FF"/>
</linearGradient>
<linearGradient id="paint61_linear_16_490" x1="286.897" y1="592.732" x2="67.4968" y2="1234.13" gradientUnits="userSpaceOnUse">
<stop stop-color="#FF1CF7"/>
<stop offset="1" stop-color="#00F0FF"/>
</linearGradient>
<linearGradient id="paint62_linear_16_490" x1="275.838" y1="593.474" x2="26.6719" y2="1210.91" gradientUnits="userSpaceOnUse">
<stop stop-color="#FF1CF7"/>
<stop offset="1" stop-color="#00F0FF"/>
</linearGradient>
<linearGradient id="paint63_linear_16_490" x1="263.841" y1="594.787" x2="-13.1729" y2="1186.78" gradientUnits="userSpaceOnUse">
<stop stop-color="#FF1CF7"/>
<stop offset="1" stop-color="#00F0FF"/>
</linearGradient>
<linearGradient id="paint64_linear_16_490" x1="250.891" y1="596.606" x2="-51.9581" y2="1161.81" gradientUnits="userSpaceOnUse">
<stop stop-color="#FF1CF7"/>
<stop offset="1" stop-color="#00F0FF"/>
</linearGradient>
<linearGradient id="paint65_linear_16_490" x1="236.97" y1="598.866" x2="-89.6124" y2="1136.09" gradientUnits="userSpaceOnUse">
<stop stop-color="#FF1CF7"/>
<stop offset="1" stop-color="#00F0FF"/>
</linearGradient>
<linearGradient id="paint66_linear_16_490" x1="222.068" y1="601.502" x2="-126.074" y2="1109.72" gradientUnits="userSpaceOnUse">
<stop stop-color="#FF1CF7"/>
<stop offset="1" stop-color="#00F0FF"/>
</linearGradient>
<linearGradient id="paint67_linear_16_490" x1="206.18" y1="604.448" x2="-161.289" y2="1082.8" gradientUnits="userSpaceOnUse">
<stop stop-color="#FF1CF7"/>
<stop offset="1" stop-color="#00F0FF"/>
</linearGradient>
<linearGradient id="paint68_linear_16_490" x1="189.302" y1="607.64" x2="-195.218" y2="1055.45" gradientUnits="userSpaceOnUse">
<stop stop-color="#FF1CF7"/>
<stop offset="1" stop-color="#00F0FF"/>
</linearGradient>
</defs>
</svg>
