<?xml version="1.0" standalone="no"?>
<!DOCTYPE svg PUBLIC "-//W3C//DTD SVG 20010904//EN"
 "http://www.w3.org/TR/2001/REC-SVG-20010904/DTD/svg10.dtd">
<svg version="1.0" xmlns="http://www.w3.org/2000/svg"
 width="500.000000pt" height="500.000000pt" viewBox="0 0 500.000000 500.000000"
 preserveAspectRatio="xMidYMid meet">

<g transform="translate(0.000000,500.000000) scale(0.100000,-0.100000)"
fill="#87CEEB" stroke="none">
<path d="M3930 3378 c-24 -35 -111 -164 -195 -288 -399 -591 -741 -1092 -770
-1127 l-20 -24 -414 421 c-228 231 -418 419 -422 418 -19 -6 -1208 -1202
-1203 -1210 3 -4 40 -8 82 -8 l77 0 515 515 c283 283 520 514 526 515 6 0 202
-191 435 -425 233 -234 426 -425 429 -425 3 0 20 21 37 48 18 26 94 138 170
249 149 219 376 553 568 835 112 165 343 504 374 548 13 19 11 20 -66 20 l-79
0 -44 -62z"/>
<path d="M2820 2853 l1 -538 33 -35 c18 -19 47 -48 65 -64 l31 -30 0 602 0
602 -65 0 -65 0 0 -537z"/>
<path d="M2370 2917 l0 -163 65 -64 65 -64 0 227 0 227 -65 0 -65 0 0 -163z"/>
<path d="M1972 2217 l-62 -63 0 -292 0 -292 23 -5 c13 -4 43 -5 66 -3 l42 3
-1 354 c0 195 -2 356 -3 358 -2 1 -31 -26 -65 -60z"/>
<path d="M2372 1835 l3 -270 60 0 60 0 3 205 2 205 -65 65 -65 65 2 -270z"/>
</g>
</svg>
